<svg xmlns="http://www.w3.org/2000/svg" width="800" height="480" viewBox="0 0 800 480" role="img" aria-label="敌怪格">
<defs>
  <linearGradient id="bg" x1="0" y1="0" x2="1" y2="1">
    <stop offset="0%" stop-color="#3d1414"/>
    <stop offset="100%" stop-color="#101827"/>
  </linearGradient>
  <linearGradient id="trim" x1="0" y1="0" x2="1" y2="0">
    <stop offset="0%" stop-color="#ff8f80"/>
    <stop offset="100%" stop-color="#ffbd80"/>
  </linearGradient>
  <radialGradient id="glow" cx="70%" cy="30%" r="50%">
    <stop offset="0%" stop-color="#ff8f80" stop-opacity="0.35"/>
    <stop offset="100%" stop-color="#ff8f80" stop-opacity="0"/>
  </radialGradient>
  <filter id="shadow" x="-30%" y="-30%" width="160%" height="160%">
    <feDropShadow dx="0" dy="20" stdDeviation="24" flood-color="#000" flood-opacity="0.35"/>
  </filter>
  <pattern id="grid" width="24" height="24" patternUnits="userSpaceOnUse">
    <path d="M 24 0 L 0 0 0 24" fill="none" stroke="rgba(255,255,255,0.04)" stroke-width="1"/>
  </pattern>
</defs>
<rect width="800" height="480" rx="30" fill="#091019"/>
<g filter="url(#shadow)">
  <rect x="14" y="14" width="772" height="452" rx="28" fill="url(#bg)"/>
  <rect x="14" y="14" width="772" height="452" rx="28" fill="url(#grid)" opacity="0.9"/>
  <circle cx="580" cy="150" r="150" fill="url(#glow)"/>
  <rect x="26" y="26" width="748" height="428" rx="24" fill="none" stroke="rgba(255,255,255,0.10)"/>
  <rect x="34" y="34" width="732" height="54" rx="18" fill="rgba(10,14,22,0.38)" stroke="rgba(255,255,255,0.09)"/>
  <rect x="44" y="45" width="140" height="30" rx="15" fill="url(#trim)"/>
  <text x="114" y="65" text-anchor="middle" fill="#071018" font-size="16" font-weight="700" font-family="'Noto Sans SC','Microsoft YaHei',sans-serif">图鉴增强版</text>
  <text x="740" y="64" text-anchor="end" fill="#d8e3ff" font-size="16" letter-spacing="1.5" font-family="monospace">功能示意</text>

  <rect x="42" y="102" width="300" height="164" rx="22" fill="rgba(10,14,22,0.34)" stroke="rgba(255,255,255,0.09)"/>
  <circle cx="192" cy="184" r="82" fill="rgba(255,255,255,0.05)" stroke="rgba(255,255,255,0.07)"/>
  <text x="192" y="212" text-anchor="middle" fill="rgba(255,255,255,0.88)" font-size="112" font-family="'Segoe UI Symbol','Arial Unicode MS',sans-serif">☠</text>
  <rect x="68" y="124" width="88" height="24" rx="12" fill="rgba(255,255,255,0.08)"/>
  <text x="112" y="141" text-anchor="middle" fill="#e9f0ff" font-size="13" font-family="monospace">ICON</text>
  <rect x="228" y="220" width="84" height="22" rx="11" fill="rgba(255,255,255,0.08)"/>
  <text x="270" y="236" text-anchor="middle" fill="#e9f0ff" font-size="12" font-family="monospace">LOCAL ASSET</text>

  <text x="376" y="156" fill="#f4f7ff" font-size="42" font-weight="700" font-family="'Noto Sans SC','Microsoft YaHei',sans-serif">敌怪格</text>
  <text x="376" y="196" fill="#bdd0f6" font-size="22" font-family="'Noto Sans SC','Microsoft YaHei',sans-serif">敌性占位格 / 扰乱邻域</text>
  <rect x="376" y="220" width="352" height="2" fill="url(#trim)" opacity="0.95"/>
  <text x="376" y="252" fill="#dbe6ff" font-size="18" font-family="'Noto Sans SC','Microsoft YaHei',sans-serif">用于图鉴快速识别、功能分类与页面浏览</text>
  <text x="376" y="278" fill="#94a8cf" font-size="17" font-family="'Noto Sans SC','Microsoft YaHei',sans-serif">不是官方原画，重点是离线稳定、视觉统一、查阅更快</text>

  <rect x="42" y="286" rx="15" ry="15" width="122" height="34" fill="rgba(255,255,255,0.06)" stroke="rgba(255,255,255,0.10)"/>
<text x="103" y="308" text-anchor="middle" fill="#e9f0ff" font-size="16" font-family="'Noto Sans SC','Microsoft YaHei',sans-serif">敌怪</text><rect x="180" y="286" rx="15" ry="15" width="122" height="34" fill="rgba(255,255,255,0.06)" stroke="rgba(255,255,255,0.10)"/>
<text x="241" y="308" text-anchor="middle" fill="#e9f0ff" font-size="16" font-family="'Noto Sans SC','Microsoft YaHei',sans-serif">占位</text><rect x="318" y="286" rx="15" ry="15" width="122" height="34" fill="rgba(255,255,255,0.06)" stroke="rgba(255,255,255,0.10)"/>
<text x="379" y="308" text-anchor="middle" fill="#e9f0ff" font-size="16" font-family="'Noto Sans SC','Microsoft YaHei',sans-serif">扰动</text>

  <rect x="42" y="340" width="686" height="84" rx="20" fill="rgba(10,14,22,0.34)" stroke="rgba(255,255,255,0.08)"/>
  <text x="62" y="372" fill="#f0f5ff" font-size="18" font-family="'Noto Sans SC','Microsoft YaHei',sans-serif">识别提示</text>
  <text x="62" y="398" fill="#9fb2d6" font-size="16" font-family="'Noto Sans SC','Microsoft YaHei',sans-serif">先看标题与标签，再对照正文理解机制、商店定位或战术含义。</text>
  <text x="62" y="418" fill="#9fb2d6" font-size="16" font-family="'Noto Sans SC','Microsoft YaHei',sans-serif">建议移动端点击图片可放大查看，桌面端可悬停查看细节。</text>

  <rect x="652" y="352" width="94" height="28" rx="14" fill="rgba(255,255,255,0.08)"/>
  <text x="699" y="371" text-anchor="middle" fill="#e9f0ff" font-size="13" font-family="monospace">OFFLINE</text>
  <rect x="652" y="388" width="94" height="28" rx="14" fill="rgba(255,255,255,0.08)"/>
  <text x="699" y="407" text-anchor="middle" fill="#e9f0ff" font-size="13" font-family="monospace">本地图鉴图 · 离线可用</text>
</g>
</svg>